<?xml version="1.0" standalone="no"?>
<!DOCTYPE svg PUBLIC "-//W3C//DTD SVG 20010904//EN"
 "http://www.w3.org/TR/2001/REC-SVG-20010904/DTD/svg10.dtd">
<svg version="1.0" xmlns="http://www.w3.org/2000/svg"
 width="300.000000pt" height="300.000000pt" viewBox="0 0 300.000000 300.000000"
 preserveAspectRatio="xMidYMid meet">
<metadata>
Created by potrace 1.11, written by Peter Selinger 2001-2013
</metadata>
<g transform="translate(0.000000,300.000000) scale(0.100000,-0.100000)"
fill="#000000" stroke="none">
<path d="M2295 2852 c-5 -6 -133 -71 -282 -146 -272 -136 -273 -137 -273 -169
0 -18 -1 -532 -1 -1144 -1 -1017 -3 -1112 -18 -1118 -85 -33 -305 -43 -388
-19 -24 7 -43 11 -43 8 0 -2 -13 2 -30 11 l-30 16 0 1009 0 1010 -282 -143
-282 -143 1 -555 c0 -645 1 -653 97 -834 52 -98 61 -110 156 -205 146 -146
338 -228 544 -234 50 -1 111 1 136 6 25 5 57 11 73 13 113 21 274 106 380 204
56 51 148 176 176 241 86 198 82 122 79 1233 -2 645 -6 965 -13 959z"/>
</g>
</svg>
